<svg xmlns="http://www.w3.org/2000/svg" viewBox="0 0 512 512">
  <defs>
    <linearGradient id="bg" x1="0%" y1="0%" x2="100%" y2="100%">
      <stop offset="0%" style="stop-color:#ff69b4"/>
      <stop offset="100%" style="stop-color:#da70d6"/>
    </linearGradient>
  </defs>
  <rect width="512" height="512" rx="100" fill="url(#bg)"/>
  <g transform="translate(256,280)">
    <rect x="-80" y="-40" width="160" height="120" rx="20" fill="white"/>
    <path d="M0,-100 a60,60 0 0,1 60,60 v40 h-20 v-40 a40,40 0 0,0-80,0 v40 h-20 v-40 a60,60 0 0,1 60-60" fill="none" stroke="white" stroke-width="20" stroke-linecap="round"/>
    <path d="M0,10 a12,12 0 0,1 0,24 a12,12 0 0,1 0-24" fill="#ff69b4"/>
    <path d="M0,28 l0,20" stroke="#ff69b4" stroke-width="8" stroke-linecap="round"/>
  </g>
</svg>
